# xmcd
#
# Track frame offsets:
# 150
# 35992
# 64527
# 91126
# 133164
# 164531
# 207881
#
# Disc length: 3197 seconds
#
#
# Revision: 0
# Processed by: cddbd v1.5.2PL0 Copyright (c) Steve Scherf et al.
# Submitted via: FreeRIP 2.951 
#
DISCID=610c7b07
DTITLE=Dylan and Grateful Dead - The Complete Interaction Disc 3
DYEAR=2003
DGENRE=blues
TTITLE0=Big Boss Man
TTITLE1=Subterranean Homesick Blues
TTITLE2=You Win Again
TTITLE3=Tangled up in Blue
TTITLE4=It Takes a lot to Laugh
TTITLE5=West LA Fadeaway
TTITLE6=Alabama Getaway
EXTD=
EXTT0=
EXTT1=
EXTT2=
EXTT3=
EXTT4=
EXTT5=
EXTT6=
PLAYORDER=
